<?xml version="1.0" standalone="no"?>
<!DOCTYPE svg PUBLIC "-//W3C//DTD SVG 20010904//EN"
 "http://www.w3.org/TR/2001/REC-SVG-20010904/DTD/svg10.dtd">
<svg version="1.0" xmlns="http://www.w3.org/2000/svg"
 width="512.000000pt" height="512.000000pt" viewBox="0 0 512.000000 512.000000"
 preserveAspectRatio="xMidYMid meet">
<metadata>
Created by potrace 1.14, written by Peter Selinger 2001-2017
</metadata>
<g transform="translate(0.000000,512.000000) scale(0.100000,-0.100000)"
fill="#000000" stroke="none">
<path d="M345 5106 c-119 -29 -249 -131 -295 -231 -53 -117 -50 32 -50 -2319
0 -2383 -4 -2204 61 -2327 49 -91 138 -165 254 -209 35 -13 307 -15 2225 -18
2442 -3 2250 -9 2368 67 100 65 168 158 196 266 14 53 16 300 16 2231 0 2100
-1 2174 -19 2233 -10 33 -30 80 -44 104 -31 52 -124 140 -178 168 -102 52 14
49 -2319 48 -1666 -1 -2177 -4 -2215 -13z"/>
</g>
</svg>
